<svg width="1200" height="415" viewBox="0 0 1200 415" fill="none" xmlns="http://www.w3.org/2000/svg">
<rect width="1200" height="415" fill="white"/>
<path d="M198.13 98C212.48 98 224.901 100.393 235.394 105.179C246.04 109.965 254.218 116.758 259.928 125.558C265.637 134.358 268.491 144.779 268.491 156.821C268.491 168.709 265.637 179.13 259.928 188.084C254.218 196.884 246.04 203.677 235.394 208.463C224.901 213.095 212.48 215.411 198.13 215.411H165.495V260.105L128 318V98H198.13ZM196.047 184.842C207.311 184.842 215.875 182.449 221.738 177.663C227.601 172.723 230.533 165.775 230.533 156.821C230.533 147.712 227.601 140.765 221.738 135.979C215.875 131.039 207.311 128.568 196.047 128.568H165.495V184.842H196.047Z" fill="#22242C"/>
<path d="M414.463 198.274C414.463 198.737 414.232 201.979 413.769 208H319.568C321.265 215.719 325.277 221.818 331.603 226.295C337.93 230.772 345.799 233.011 355.212 233.011C361.692 233.011 367.401 232.084 372.339 230.232C377.431 228.225 382.137 225.137 386.458 220.968L405.668 241.811C393.941 255.242 376.814 261.958 354.286 261.958C340.244 261.958 327.823 259.256 317.022 253.853C306.221 248.295 297.889 240.653 292.025 230.926C286.162 221.2 283.23 210.161 283.23 197.811C283.23 185.614 286.085 174.653 291.794 164.926C297.657 155.046 305.604 147.404 315.633 142C325.817 136.442 337.158 133.663 349.657 133.663C361.847 133.663 372.879 136.288 382.754 141.537C392.63 146.786 400.345 154.351 405.9 164.232C411.609 173.958 414.463 185.305 414.463 198.274ZM349.888 160.989C341.71 160.989 334.844 163.305 329.289 167.937C323.734 172.568 320.34 178.898 319.105 186.926H380.44C379.205 179.053 375.811 172.8 370.256 168.168C364.701 163.382 357.912 160.989 349.888 160.989Z" fill="#22242C"/>
<path d="M560.477 198.274C560.477 198.737 560.245 201.979 559.782 208H465.582C467.279 215.719 471.291 221.818 477.617 226.295C483.943 230.772 491.813 233.011 501.225 233.011C507.706 233.011 513.415 232.084 518.353 230.232C523.445 228.225 528.151 225.137 532.471 220.968L551.682 241.811C539.955 255.242 522.827 261.958 500.299 261.958C486.258 261.958 473.837 259.256 463.036 253.853C452.235 248.295 443.902 240.653 438.039 230.926C432.175 221.2 429.244 210.161 429.244 197.811C429.244 185.614 432.098 174.653 437.807 164.926C443.671 155.046 451.617 147.404 461.647 142C471.831 136.442 483.172 133.663 495.67 133.663C507.86 133.663 518.893 136.288 528.768 141.537C538.643 146.786 546.358 154.351 551.913 164.232C557.622 173.958 560.477 185.305 560.477 198.274ZM495.902 160.989C487.724 160.989 480.857 163.305 475.303 167.937C469.748 172.568 466.353 178.898 465.119 186.926H526.453C525.219 179.053 521.824 172.8 516.27 168.168C510.715 163.382 503.925 160.989 495.902 160.989Z" fill="#22242C"/>
<path d="M619.002 151.958C623.322 145.937 629.108 141.382 636.36 138.295C643.767 135.207 652.254 133.663 661.82 133.663V167.011C657.808 166.702 655.108 166.547 653.719 166.547C643.381 166.547 635.28 169.481 629.417 175.347C623.553 181.06 620.622 189.705 620.622 201.284V260.105H584.515V135.516H619.002V151.958Z" fill="#22242C"/>
<path d="M758.974 133.663C774.404 133.663 786.825 138.295 796.238 147.558C805.804 156.821 810.588 170.561 810.588 188.779V260.105H774.481V194.337C774.481 184.456 772.321 177.123 768.001 172.337C763.68 167.397 757.431 164.926 749.253 164.926C740.149 164.926 732.897 167.782 727.496 173.495C722.096 179.053 719.396 187.389 719.396 198.505V260.105H683.289V135.516H717.775V150.105C722.559 144.856 728.499 140.842 735.597 138.063C742.695 135.13 750.487 133.663 758.974 133.663Z" fill="#22242C"/>
<path d="M966.648 198.274C966.648 198.737 966.416 201.979 965.953 208H871.752C873.45 215.719 877.462 221.818 883.788 226.295C890.114 230.772 897.984 233.011 907.396 233.011C913.877 233.011 919.586 232.084 924.524 230.232C929.616 228.225 934.322 225.137 938.642 220.968L957.853 241.811C946.126 255.242 928.998 261.958 906.47 261.958C892.429 261.958 880.007 259.256 869.206 253.853C858.405 248.295 850.073 240.653 844.21 230.926C838.346 221.2 835.415 210.161 835.415 197.811C835.415 185.614 838.269 174.653 843.978 164.926C849.842 155.046 857.788 147.404 867.818 142C878.002 136.442 889.343 133.663 901.841 133.663C914.031 133.663 925.064 136.288 934.939 141.537C944.814 146.786 952.529 154.351 958.084 164.232C963.793 173.958 966.648 185.305 966.648 198.274ZM902.073 160.989C893.895 160.989 887.028 163.305 881.474 167.937C875.919 172.568 872.524 178.898 871.29 186.926H932.624C931.39 179.053 927.995 172.8 922.44 168.168C916.886 163.382 910.096 160.989 902.073 160.989Z" fill="#22242C"/>
<path d="M1071 254.084C1067.45 256.709 1063.05 258.716 1057.81 260.105C1052.72 261.34 1047.31 261.958 1041.61 261.958C1026.79 261.958 1015.3 258.175 1007.12 250.611C999.096 243.046 995.084 231.93 995.084 217.263V166.084H975.873V138.295H995.084V107.958H1031.19V138.295H1062.2V166.084H1031.19V216.8C1031.19 222.049 1032.5 226.14 1035.12 229.074C1037.9 231.853 1041.76 233.242 1046.7 233.242C1052.41 233.242 1057.27 231.698 1061.28 228.611L1071 254.084Z" fill="#22242C"/>
</svg>
